<svg width="50" height="33" viewBox="0 0 50 33" fill="none" xmlns="http://www.w3.org/2000/svg">
<circle cx="25" cy="30" r="3" fill="url(#paint0_linear_9_34)"/>
<path d="M10.5674 2.48367H12.0693V15H10.5674V9.43917H3.14696V15H1.645V2.48367H3.14696V8.00873H10.5674V2.48367ZM15.6071 14.0166C14.7012 13.206 14.2482 12.1034 14.2482 10.7087C14.2482 9.31401 14.7012 8.21734 15.6071 7.41868C16.5131 6.6081 17.5859 6.20281 18.8256 6.20281C20.0773 6.20281 21.1501 6.6081 22.0441 7.41868C22.9501 8.21734 23.403 9.31401 23.403 10.7087C23.403 12.1034 22.9501 13.206 22.0441 14.0166C21.1501 14.8152 20.0773 15.2146 18.8256 15.2146C17.5859 15.2146 16.5131 14.8152 15.6071 14.0166ZM21.0786 13.0153C21.6746 12.4431 21.9726 11.6742 21.9726 10.7087C21.9726 9.74314 21.6746 8.98024 21.0786 8.41998C20.4826 7.84781 19.7316 7.56172 18.8256 7.56172C17.9197 7.56172 17.1687 7.84781 16.5727 8.41998C15.9767 8.98024 15.6787 9.74314 15.6787 10.7087C15.6787 11.6742 15.9767 12.4431 16.5727 13.0153C17.1687 13.5755 17.9197 13.8556 18.8256 13.8556C19.7316 13.8556 20.4826 13.5755 21.0786 13.0153ZM26.8853 15H25.4548V6.41737H26.7422V7.56172C27.5885 6.65578 28.566 6.20281 29.6746 6.20281C30.9501 6.20281 31.8679 6.68558 32.4282 7.65112C33.3699 6.68558 34.4129 6.20281 35.5573 6.20281C36.5943 6.20281 37.399 6.53061 37.9711 7.18623C38.5433 7.82993 38.8294 8.67031 38.8294 9.70738V15H37.399V9.67162C37.399 9.016 37.2202 8.49747 36.8626 8.11602C36.5049 7.72265 36.0162 7.52596 35.3964 7.52596C34.4785 7.52596 33.6441 7.99681 32.8931 8.93852C32.9289 9.18884 32.9467 9.44513 32.9467 9.70738V15H31.5163V9.67162C31.5163 9.016 31.3375 8.49747 30.9799 8.11602C30.6223 7.72265 30.1335 7.52596 29.5137 7.52596C28.5601 7.52596 27.6839 8.04449 26.8853 9.08156V15ZM40.7721 10.7087C40.7721 9.30209 41.2012 8.19946 42.0595 7.4008C42.9297 6.60214 43.925 6.20281 45.0455 6.20281C46.0945 6.20281 46.9587 6.46505 47.6382 6.98955C48.3296 7.51404 48.7825 8.1637 48.9971 8.93852C49.2117 9.70142 49.2236 10.5001 49.0329 11.3345H42.2025C42.286 12.1808 42.6615 12.8186 43.329 13.2477C43.9965 13.6768 44.8012 13.8914 45.7429 13.8914C46.7919 13.8914 47.7336 13.659 48.568 13.1941V14.5887C47.7693 15.006 46.7561 15.2146 45.5283 15.2146C44.1694 15.2146 43.037 14.8272 42.131 14.0523C41.2251 13.2775 40.7721 12.163 40.7721 10.7087ZM47.7634 10.0829C47.7991 9.83254 47.7812 9.5703 47.7097 9.29613C47.6382 9.02196 47.5071 8.74779 47.3163 8.47363C47.1375 8.19946 46.8574 7.97297 46.476 7.79417C46.0945 7.61536 45.6475 7.52596 45.1349 7.52596C44.3601 7.52596 43.6866 7.75245 43.1144 8.20542C42.5542 8.65839 42.2502 9.28421 42.2025 10.0829H47.7634Z" fill="url(#paint1_linear_9_34)"/>
<defs>
<linearGradient id="paint0_linear_9_34" x1="27.1668" y1="27" x2="22.1439" y2="27.7339" gradientUnits="userSpaceOnUse">
<stop stop-color="#FF6432"/>
<stop offset="1" stop-color="#FFA228"/>
</linearGradient>
<linearGradient id="paint1_linear_9_34" x1="43.0568" y1="-2.85128e-06" x2="5.33822" y2="13.7778" gradientUnits="userSpaceOnUse">
<stop stop-color="#FF6432"/>
<stop offset="1" stop-color="#FFA228"/>
</linearGradient>
</defs>
</svg>
